name C:\Users\u0101727\Documents\MyRepositories\upper-imu-dc\Results\main_mocap_tracking\Case_10\FLX01_linearAccelerations_groundFrame.mot
datacolumns 4
datarows 117
range 5.01000000 6.17000000
endheader 
time	radius_imu_x	radius_imu_y	radius_imu_z	
          5.01000000	         -0.28301578	         10.74703621	         -1.70276332	
          5.02000000	         -0.14205383	         10.77353302	         -1.81677152	
          5.03000000	          0.00728555	         10.79044167	         -1.89021278	
          5.04000000	          0.13193148	         10.80543785	         -1.87228792	
          5.05000000	          0.20297727	         10.82526813	         -1.74620955	
          5.06000000	          0.20877046	         10.85232434	         -1.54187796	
          5.07000000	          0.15986886	         10.88151074	         -1.32319296	
          5.08000000	          0.08372149	         10.89987316	         -1.15789010	
          5.09000000	          0.01270753	         10.89099949	         -1.08739014	
          5.10000000	         -0.02721754	         10.84179666	         -1.11495623	
          5.11000000	         -0.02252543	         10.74717715	         -1.21730893	
          5.12000000	          0.02802830	         10.61035191	         -1.37040238	
          5.13000000	          0.11652846	         10.44093450	         -1.56880574	
          5.14000000	          0.22768456	         10.25439911	         -1.82012719	
          5.15000000	          0.33992178	         10.07183382	         -2.12065779	
          5.16000000	          0.43041443	          9.91613400	         -2.43949822	
          5.17000000	          0.48581145	          9.80427197	         -2.73052349	
          5.18000000	          0.51267499	          9.74031150	         -2.96291400	
          5.19000000	          0.53759063	          9.71458037	         -3.14280945	
          5.20000000	          0.59486004	          9.70980179	         -3.31150423	
          5.21000000	          0.71088239	          9.71043775	         -3.52704455	
          5.22000000	          0.89445807	          9.71082511	         -3.84044390	
          5.23000000	          1.13436764	          9.71873946	         -4.27283166	
          5.24000000	          1.40106459	          9.75218616	         -4.79916385	
          5.25000000	          1.65141960	          9.82994952	         -5.34789597	
          5.26000000	          1.83820714	          9.96100988	         -5.82287444	
          5.27000000	          1.92287485	         10.14001419	         -6.13675528	
          5.28000000	          1.88545187	         10.35100241	         -6.23607131	
          5.29000000	          1.72658569	         10.57471326	         -6.11002953	
          5.30000000	          1.46129914	         10.79407344	         -5.78538106	
          5.31000000	          1.10871677	         10.99615228	         -5.31097408	
          5.32000000	          0.68438239	         11.17175204	         -4.73885046	
          5.33000000	          0.19864471	         11.31458444	         -4.10931365	
          5.34000000	         -0.34046335	         11.42100072	         -3.44387158	
          5.35000000	         -0.92327888	         11.48993158	         -2.74675856	
          5.36000000	         -1.53626085	         11.52251819	         -2.01168593	
          5.37000000	         -2.16292548	         11.52155799	         -1.22838593	
          5.38000000	         -2.78690948	         11.49079571	         -0.38666189	
          5.39000000	         -3.39429678	         11.43428756	          0.52026481	
          5.40000000	         -3.97836194	         11.35573429	          1.49701955	
          5.41000000	         -4.53644533	         11.25966173	          2.54045567	
          5.42000000	         -5.07751926	         11.15274318	          3.64312799	
          5.43000000	         -5.61179314	         11.04267646	          4.78249259	
          5.44000000	         -6.14919510	         10.93641688	          5.91993793	
          5.45000000	         -6.69411732	         10.83796543	          7.00449705	
          5.46000000	         -7.24214163	         10.74105746	          7.98013334	
          5.47000000	         -7.77781758	         10.64341029	          8.78567523	
          5.48000000	         -8.28484398	         10.51410247	          9.36094484	
          5.49000000	         -8.66545564	         10.39411771	          9.69059837	
          5.50000000	         -8.98830703	         10.17993261	          9.83668068	
          5.51000000	         -9.21026536	          9.82132912	          9.60511372	
          5.52000000	         -9.46393249	          9.69358430	          9.59982463	
          5.53000000	         -9.59952611	          9.54570686	          8.76098201	
          5.54000000	         -9.49466163	          9.28728349	          7.86290690	
          5.55000000	         -9.55437765	          9.33510947	          7.05064129	
          5.56000000	         -9.22955862	          9.26079233	          6.02065078	
          5.57000000	         -8.88149782	          9.44691657	          5.05164916	
          5.58000000	         -8.23762032	          9.82422894	          4.03325305	
          5.59000000	         -7.28822346	         10.16797804	          2.72073514	
          5.60000000	         -6.21989412	         10.51613397	          1.39263718	
          5.61000000	         -5.13255271	         10.81881439	          0.18017560	
          5.62000000	         -4.12272212	         11.07278897	         -0.86941035	
          5.63000000	         -3.43038970	         11.26115034	         -1.60079953	
          5.64000000	         -2.47764110	         10.90741141	         -2.71829529	
          5.65000000	         -2.05683873	         10.46378521	         -3.41204776	
          5.66000000	         -2.06986346	         10.73869503	         -3.39243959	
          5.67000000	         -1.60597842	         10.70187182	         -3.79570243	
          5.68000000	         -1.11995374	         10.66561308	         -4.19799672	
          5.69000000	         -0.59405906	         10.62833999	         -4.62249130	
          5.70000000	         -0.02530331	         10.60149675	         -5.03884000	
          5.71000000	          0.59352521	         10.58263832	         -5.43084078	
          5.72000000	          1.25862529	         10.56751827	         -5.77868720	
          5.73000000	          1.95326633	         10.55053748	         -6.06250680	
          5.74000000	          2.64947248	         10.53024015	         -6.26169975	
          5.75000000	          3.31579208	         10.51078446	         -6.35439888	
          5.76000000	          3.92465065	         10.50122788	         -6.31666557	
          5.77000000	          4.46060798	         10.51329716	         -6.12592600	
          5.78000000	          4.91864146	         10.55794586	         -5.76101008	
          5.79000000	          5.32607703	         10.63480003	         -5.23291304	
          5.80000000	          5.65969812	         10.75773417	         -4.51383250	
          5.81000000	          6.24944634	         10.80616205	         -4.01254274	
          5.82000000	          6.78373908	         10.87398015	         -3.42473172	
          5.83000000	          7.08819218	         10.95831311	         -2.60589745	
          5.84000000	          7.29476573	         11.03281273	         -1.80839644	
          5.85000000	          7.37821862	         11.08427070	         -1.10812621	
          5.86000000	          7.30609876	         10.99624772	         -0.63187924	
          5.87000000	          7.49268891	         10.79836546	         -0.85540950	
          5.88000000	          7.13300748	         10.59762579	         -0.62068163	
          5.89000000	          6.73037311	         10.61976071	         -0.32981470	
          5.90000000	          6.31812397	         10.56789735	         -0.40396015	
          5.91000000	          5.69215940	         10.60999060	         -0.22607912	
          5.92000000	          5.28757235	         10.65972218	         -0.34152661	
          5.93000000	          4.73761918	         10.63705316	         -0.31589280	
          5.94000000	          4.11606930	         10.63971081	         -0.20527604	
          5.95000000	          3.41915204	         10.59258396	          0.04809790	
          5.96000000	          2.69502526	         10.59906264	          0.32819581	
          5.97000000	          2.02188794	         10.57969013	          0.59767139	
          5.98000000	          1.36668004	         10.56410705	          0.90975542	
          5.99000000	          0.70791270	         10.54893241	          1.25562640	
          6.00000000	          0.05093697	         10.53918534	          1.60644492	
          6.01000000	         -0.60198252	         10.54169447	          1.92328882	
          6.02000000	         -1.20096752	         10.54051982	          2.09756489	
          6.03000000	         -1.78753600	         10.57127949	          2.24530079	
          6.04000000	         -2.20199668	         10.61319304	          1.88165020	
          6.05000000	         -2.35948630	         10.45728888	          0.97423840	
          6.06000000	         -2.75717583	         10.07189545	          1.14338909	
          6.07000000	         -2.85536552	         10.05781625	          0.72978347	
          6.08000000	         -2.87369368	          9.87317488	         -0.37338840	
          6.09000000	         -3.30219145	         10.12864065	         -0.36773128	
          6.10000000	         -3.01169611	          9.51962195	         -1.49655306	
          6.11000000	         -3.05446597	          9.77642318	         -1.16766038	
          6.12000000	         -2.98104905	          9.79539872	         -0.51130385	
          6.13000000	         -2.75735359	          9.70511509	         -0.36485132	
          6.14000000	         -2.03148514	          9.25526558	         -1.06777827	
          6.15000000	         -1.70706479	          9.64454022	         -0.34992264	
          6.16000000	         -1.42713153	         10.01843141	          1.07411143	
          6.17000000	         -1.01500858	         10.12137553	          1.61704454	
